<?xml version="1.0" encoding="UTF-8" standalone="no" ?>
<!DOCTYPE svg PUBLIC "-//W3C//DTD SVG 1.1//EN" "http://www.w3.org/Graphics/SVG/1.1/DTD/svg11.dtd">
<svg xmlns="http://www.w3.org/2000/svg" xmlns:xlink="http://www.w3.org/1999/xlink" version="1.1" width="1080" height="1080" viewBox="0 0 1080 1080" xml:space="preserve">
<desc>Created with Fabric.js 5.2.4</desc>
<defs>
</defs>
<rect x="0" y="0" width="100%" height="100%" fill="transparent"></rect>
<g transform="matrix(1 0 0 1 540 540)" id="2f75aff1-a1fc-4e4e-bc63-b3962c093892"  >
<rect style="stroke: none; stroke-width: 1; stroke-dasharray: none; stroke-linecap: butt; stroke-dashoffset: 0; stroke-linejoin: miter; stroke-miterlimit: 4; fill: rgb(255,255,255); fill-rule: nonzero; opacity: 1; visibility: hidden;" vector-effect="non-scaling-stroke"  x="-540" y="-540" rx="0" ry="0" width="1080" height="1080" />
</g>
<g transform="matrix(1 0 0 1 540 540)" id="01736f2d-7150-49d1-8bf8-a2da8de8912c"  >
</g>
<g transform="matrix(1 0 0 1 -445.77 735.7)"  >
<g style="" vector-effect="non-scaling-stroke"   >
		<g transform="matrix(1 0 0 1 -153 160)"  >
<path style="stroke: none; stroke-width: 1; stroke-dasharray: none; stroke-linecap: butt; stroke-dashoffset: 0; stroke-linejoin: miter; stroke-miterlimit: 4; fill: rgb(176,121,59); fill-rule: nonzero; opacity: 1;" vector-effect="non-scaling-stroke"  transform=" translate(-96, -408)" d="M 48 448 L 144 448 L 144 368 L 48 368 Z M 64 384 L 128 384 L 128 432 L 64 432 Z" stroke-linecap="round" />
</g>
		<g transform="matrix(1 0 0 1 -25 160)"  >
<path style="stroke: none; stroke-width: 1; stroke-dasharray: none; stroke-linecap: butt; stroke-dashoffset: 0; stroke-linejoin: miter; stroke-miterlimit: 4; fill: rgb(176,121,59); fill-rule: nonzero; opacity: 1;" vector-effect="non-scaling-stroke"  transform=" translate(-224, -408)" d="M 176 368 L 176 448 L 272 448 L 272 368 Z M 256 432 L 192 432 L 192 384 L 256 384 Z" stroke-linecap="round" />
</g>
		<g transform="matrix(1 0 0 1 -169 -120)"  >
<path style="stroke: none; stroke-width: 1; stroke-dasharray: none; stroke-linecap: butt; stroke-dashoffset: 0; stroke-linejoin: miter; stroke-miterlimit: 4; fill: rgb(176,121,59); fill-rule: nonzero; opacity: 1;" vector-effect="non-scaling-stroke"  transform=" translate(-80, -128)" d="M 112 168 L 112 88 C 112 74.74516600406096 101.25483399593904 64 88 64 L 72 64 C 58.745166004060955 64 48 74.74516600406096 48 88 L 48 168 C 48 181.25483399593904 58.745166004060955 192 72 192 L 88 192 C 101.25483399593904 192 112 181.25483399593904 112 168 Z M 64 168 L 64 88 C 64 83.58172200135365 67.58172200135365 80 72 80 L 88 80 C 92.41827799864635 80 96 83.58172200135365 96 88 L 96 168 C 96 172.41827799864635 92.41827799864635 176 88 176 L 72 176 C 67.58172200135365 176 64 172.41827799864635 64 168 Z" stroke-linecap="round" />
</g>
		<g transform="matrix(1 0 0 1 0 0)"  >
<path style="stroke: none; stroke-width: 1; stroke-dasharray: none; stroke-linecap: butt; stroke-dashoffset: 0; stroke-linejoin: miter; stroke-miterlimit: 4; fill: rgb(176,121,59); fill-rule: nonzero; opacity: 1;" vector-effect="non-scaling-stroke"  transform=" translate(-249, -248)" d="M 399.21 197.44 C 390.2853997328626 190.44042999298236 377.7346002671374 190.44042999298236 368.81 197.44 L 355.87 208 L 223.32 208 C 223.73629252038558 205.35285724638842 223.96353400562123 202.67942800832216 224 200.00000000000003 L 224 168 L 324.28 168 L 340 144.42 L 355.72 168 L 372.28000000000003 168 L 388 144.42 L 403.72 168 L 420.28000000000003 168 L 436 144.42 L 451.72 168 L 468 168 L 498 128 L 468 88 L 224 88 L 224 56 C 223.96143232349775 25.088043358000693 198.9119566419993 0.038567676502268 168 1.4210854715202004e-14 L 56 0 C 25.088043358000693 0.03856767650226363 0.038567676502268 25.0880433580007 1.4210854715202004e-14 56.00000000000001 L 0 200 C 0.0485364822189487 221.6162590490549 12.562168402326801 241.26495902942963 32.129999999999995 250.45 L 0 276.16 L 0 336 L 16 336 L 16 496 L 480 496 L 480 310.48 C 488.20486562216985 307.6657632695282 494.22893177562696 300.6105763218566 495.72270985939764 292.06608246385383 C 497.21648794316826 283.521588605851 493.943397630938 274.84104048399786 487.18 269.41 Z M 379 209.79 C 381.97105255578475 207.46016982913872 386.14894744421525 207.46016982913872 389.12 209.79 L 477.12 281.78999999999996 C 478.76497106305834 283.1315753735702 479.8093320065559 285.0719043368002 480.02314580914805 287.18378452731537 C 480.2369596117402 289.29566471783056 479.60269569879324 291.4059432668817 478.26 293.04999999999995 L 478.26 293.04999999999995 C 475.4103190131821 296.36788340581035 470.46156980927253 296.8733062818757 467 294.2 L 384 226.33999999999997 L 301.09000000000003 294.17999999999995 C 297.625375823434 296.8670051154909 292.66335521371883 296.3703635487081 289.8 293.04999999999995 C 287.01744193323896 289.62941476311795 287.5273153161125 284.6022421109265 290.94 281.80999999999995 Z M 280.8 269.43 C 270.5551293900081 277.82089386742354 269.0425695455164 292.924117166712 277.42 303.18 C 280.1973940867018 306.5182794902237 283.86673390141124 308.9980318224706 288 310.33 L 288 320 L 16 320 L 16 288 L 256 288 L 256 272 L 30.81 272 L 90.81 224 L 336.32 224 Z M 304 152 L 224 152 L 224 136 L 296 136 C 300.4182779986464 136 304 139.58172200135365 304 144 Z M 460 104 L 478 128 L 460.15 151.81 L 444.28 128 L 427.72 128 L 412 151.58 L 396.28 128 L 379.72 128 L 364 151.58 L 348.28 128 L 331.72 128 L 320 145.58 L 320 144 C 320 130.74516600406096 309.25483399593907 120 296 120 L 224 120 L 224 104 Z M 16 200 L 16 56 C 16 33.908610006768264 33.908610006768264 16 56 16 L 168 16 C 190.09138999323173 16 208 33.90861000676826 208 55.99999999999999 L 208 200 C 207.97905766038355 202.69016674950626 207.68081423822855 205.37100649921433 207.11 208 L 85.19 208 L 46.71 238.78 C 28.722259305928223 234.53379565373143 16.01089254734115 218.4821250937182 15.999999999999996 200 Z M 32 336 L 288 336 L 288 480 L 32 480 Z M 432 480 L 416 480 L 416 384 L 352 384 L 352 480 L 336 480 L 336 400 C 336 373.4903320081219 357.4903320081219 352 384 352 C 410.5096679918781 352 432 373.4903320081219 432 400 Z M 400 480 L 368 480 L 368 400 L 400 400 Z M 448 480 L 448 400 C 448 364.65377601082923 419.34622398917077 336 384 336 C 348.65377601082923 336 320 364.65377601082923 320 400 L 320 480 L 304 480 L 304 310.4 C 306.60568022190836 309.5737951063814 309.0388252488154 308.2792806213139 311.18 306.58 L 384 247 L 456.82 306.57 C 458.97069288157587 308.29861026605124 461.3982616859664 309.6510162852103 464 310.57 L 464 480 Z" stroke-linecap="round" />
</g>
</g>
</g>
<g transform="matrix(NaN NaN NaN NaN 0 0)"  >
<g style=""   >
</g>
</g>
<g transform="matrix(NaN NaN NaN NaN 0 0)"  >
<g style=""   >
</g>
</g>
<g transform="matrix(NaN NaN NaN NaN 0 0)"  >
<g style=""   >
</g>
</g>
<g transform="matrix(1 0 0 1 -715.77 761.07)"  >
<g style="" vector-effect="non-scaling-stroke"   >
		<g transform="matrix(1 0 0 1 -153 160)"  >
<path style="stroke: none; stroke-width: 1; stroke-dasharray: none; stroke-linecap: butt; stroke-dashoffset: 0; stroke-linejoin: miter; stroke-miterlimit: 4; fill: rgb(62,68,82); fill-rule: nonzero; opacity: 1;" vector-effect="non-scaling-stroke"  transform=" translate(-96, -408)" d="M 48 448 L 144 448 L 144 368 L 48 368 Z M 64 384 L 128 384 L 128 432 L 64 432 Z" stroke-linecap="round" />
</g>
		<g transform="matrix(1 0 0 1 -25 160)"  >
<path style="stroke: none; stroke-width: 1; stroke-dasharray: none; stroke-linecap: butt; stroke-dashoffset: 0; stroke-linejoin: miter; stroke-miterlimit: 4; fill: rgb(62,68,82); fill-rule: nonzero; opacity: 1;" vector-effect="non-scaling-stroke"  transform=" translate(-224, -408)" d="M 176 368 L 176 448 L 272 448 L 272 368 Z M 256 432 L 192 432 L 192 384 L 256 384 Z" stroke-linecap="round" />
</g>
		<g transform="matrix(1 0 0 1 -169 -120)"  >
<path style="stroke: none; stroke-width: 1; stroke-dasharray: none; stroke-linecap: butt; stroke-dashoffset: 0; stroke-linejoin: miter; stroke-miterlimit: 4; fill: rgb(62,68,82); fill-rule: nonzero; opacity: 1;" vector-effect="non-scaling-stroke"  transform=" translate(-80, -128)" d="M 112 168 L 112 88 C 112 74.74516600406096 101.25483399593904 64 88 64 L 72 64 C 58.745166004060955 64 48 74.74516600406096 48 88 L 48 168 C 48 181.25483399593904 58.745166004060955 192 72 192 L 88 192 C 101.25483399593904 192 112 181.25483399593904 112 168 Z M 64 168 L 64 88 C 64 83.58172200135365 67.58172200135365 80 72 80 L 88 80 C 92.41827799864635 80 96 83.58172200135365 96 88 L 96 168 C 96 172.41827799864635 92.41827799864635 176 88 176 L 72 176 C 67.58172200135365 176 64 172.41827799864635 64 168 Z" stroke-linecap="round" />
</g>
		<g transform="matrix(1 0 0 1 0 0)"  >
<path style="stroke: none; stroke-width: 1; stroke-dasharray: none; stroke-linecap: butt; stroke-dashoffset: 0; stroke-linejoin: miter; stroke-miterlimit: 4; fill: rgb(62,68,82); fill-rule: nonzero; opacity: 1;" vector-effect="non-scaling-stroke"  transform=" translate(-249, -248)" d="M 399.21 197.44 C 390.2853997328626 190.44042999298236 377.7346002671374 190.44042999298236 368.81 197.44 L 355.87 208 L 223.32 208 C 223.73629252038558 205.35285724638842 223.96353400562123 202.67942800832216 224 200.00000000000003 L 224 168 L 324.28 168 L 340 144.42 L 355.72 168 L 372.28000000000003 168 L 388 144.42 L 403.72 168 L 420.28000000000003 168 L 436 144.42 L 451.72 168 L 468 168 L 498 128 L 468 88 L 224 88 L 224 56 C 223.96143232349775 25.088043358000693 198.9119566419993 0.038567676502268 168 1.4210854715202004e-14 L 56 0 C 25.088043358000693 0.03856767650226363 0.038567676502268 25.0880433580007 1.4210854715202004e-14 56.00000000000001 L 0 200 C 0.0485364822189487 221.6162590490549 12.562168402326801 241.26495902942963 32.129999999999995 250.45 L 0 276.16 L 0 336 L 16 336 L 16 496 L 480 496 L 480 310.48 C 488.20486562216985 307.6657632695282 494.22893177562696 300.6105763218566 495.72270985939764 292.06608246385383 C 497.21648794316826 283.521588605851 493.943397630938 274.84104048399786 487.18 269.41 Z M 379 209.79 C 381.97105255578475 207.46016982913872 386.14894744421525 207.46016982913872 389.12 209.79 L 477.12 281.78999999999996 C 478.76497106305834 283.1315753735702 479.8093320065559 285.0719043368002 480.02314580914805 287.18378452731537 C 480.2369596117402 289.29566471783056 479.60269569879324 291.4059432668817 478.26 293.04999999999995 L 478.26 293.04999999999995 C 475.4103190131821 296.36788340581035 470.46156980927253 296.8733062818757 467 294.2 L 384 226.33999999999997 L 301.09000000000003 294.17999999999995 C 297.625375823434 296.8670051154909 292.66335521371883 296.3703635487081 289.8 293.04999999999995 C 287.01744193323896 289.62941476311795 287.5273153161125 284.6022421109265 290.94 281.80999999999995 Z M 280.8 269.43 C 270.5551293900081 277.82089386742354 269.0425695455164 292.924117166712 277.42 303.18 C 280.1973940867018 306.5182794902237 283.86673390141124 308.9980318224706 288 310.33 L 288 320 L 16 320 L 16 288 L 256 288 L 256 272 L 30.81 272 L 90.81 224 L 336.32 224 Z M 304 152 L 224 152 L 224 136 L 296 136 C 300.4182779986464 136 304 139.58172200135365 304 144 Z M 460 104 L 478 128 L 460.15 151.81 L 444.28 128 L 427.72 128 L 412 151.58 L 396.28 128 L 379.72 128 L 364 151.58 L 348.28 128 L 331.72 128 L 320 145.58 L 320 144 C 320 130.74516600406096 309.25483399593907 120 296 120 L 224 120 L 224 104 Z M 16 200 L 16 56 C 16 33.908610006768264 33.908610006768264 16 56 16 L 168 16 C 190.09138999323173 16 208 33.90861000676826 208 55.99999999999999 L 208 200 C 207.97905766038355 202.69016674950626 207.68081423822855 205.37100649921433 207.11 208 L 85.19 208 L 46.71 238.78 C 28.722259305928223 234.53379565373143 16.01089254734115 218.4821250937182 15.999999999999996 200 Z M 32 336 L 288 336 L 288 480 L 32 480 Z M 432 480 L 416 480 L 416 384 L 352 384 L 352 480 L 336 480 L 336 400 C 336 373.4903320081219 357.4903320081219 352 384 352 C 410.5096679918781 352 432 373.4903320081219 432 400 Z M 400 480 L 368 480 L 368 400 L 400 400 Z M 448 480 L 448 400 C 448 364.65377601082923 419.34622398917077 336 384 336 C 348.65377601082923 336 320 364.65377601082923 320 400 L 320 480 L 304 480 L 304 310.4 C 306.60568022190836 309.5737951063814 309.0388252488154 308.2792806213139 311.18 306.58 L 384 247 L 456.82 306.57 C 458.97069288157587 308.29861026605124 461.3982616859664 309.6510162852103 464 310.57 L 464 480 Z" stroke-linecap="round" />
</g>
</g>
</g>
<g transform="matrix(1 0 0 1 -456.64 710.34)"  >
<g style="" vector-effect="non-scaling-stroke"   >
		<g transform="matrix(1 0 0 1 1.98 -88.07)"  >
<path style="stroke: none; stroke-width: 1; stroke-dasharray: none; stroke-linecap: butt; stroke-dashoffset: 0; stroke-linejoin: miter; stroke-miterlimit: 4; fill: rgb(62,68,82); fill-rule: nonzero; opacity: 1;" vector-effect="non-scaling-stroke"  transform=" translate(-257.82, -167.99)" d="M 136.41 235.43 C 136.3917059148645 239.95790048810878 138.19328664532816 244.30331320998715 141.41 247.49 L 147.41 253.49 C 164.07772597729615 270.1396425532516 191.08227402270387 270.1396425532516 207.75 253.49 L 250.29 211 C 267.10738645129067 225.0811465335871 288.35600012777144 232.77314468447318 310.2899999999999 232.72000000000003 L 310.28999999999996 232.72 C 335.22576565727275 232.75105697951426 359.14224195694237 222.82665523987112 376.72999999999996 205.14999999999998 C 380.0630384652288 201.81696153477117 380.0630384652288 196.41303846522885 376.72999999999996 193.08 C 373.39696153477115 189.74696153477117 367.9930384652288 189.74696153477117 364.65999999999997 193.08 C 350.2678010849128 207.5531676799296 330.69095702164924 215.67838596804762 310.28 215.65000000000003 L 310.28 215.65 C 289.91261511055075 215.705971243946 270.3684745924496 207.61538838761342 256 193.18 C 252.66576888565217 189.8498420891986 247.26423111434784 189.8498420891986 243.93 193.18 L 195.65 241.45000000000002 C 185.99 251.12 169.12 251.12 159.45 241.45000000000002 L 153.45 235.45000000000002 L 256.06 132.85000000000002 C 265.63 123.28000000000003 274.71 123.28000000000003 286.23 123.28000000000003 C 298.55 123.28000000000003 313.90000000000003 123.28000000000003 328.47 108.72000000000003 L 352.6 84.58 C 355.9330384652289 81.24696153477116 355.9330384652289 75.84303846522884 352.6 72.50999999999999 C 349.2669615347712 69.17696153477115 343.8630384652289 69.17696153477115 340.53000000000003 72.50999999999999 L 316.4 96.65 C 306.83 106.22 297.73999999999995 106.22 286.21999999999997 106.22 C 273.9 106.22 258.55999999999995 106.22 243.98999999999998 120.78 L 141.42 223.35 C 138.20036742950865 226.54373176000806 136.39572216206395 230.89505208550344 136.41 235.43 Z" stroke-linecap="round" />
</g>
		<g transform="matrix(1 0 0 1 -179.05 -179.26)"  >
<path style="stroke: none; stroke-width: 1; stroke-dasharray: none; stroke-linecap: butt; stroke-dashoffset: 0; stroke-linejoin: miter; stroke-miterlimit: 4; fill: rgb(62,68,82); fill-rule: nonzero; opacity: 1;" vector-effect="non-scaling-stroke"  transform=" translate(-76.79, -76.81)" d="M 76.78 93.88 C 86.20749830026017 93.8855212283985 93.8544718337577 86.24750024893987 93.85999414062645 76.82000194931138 C 93.86551644749521 67.39250364968288 86.22749634282155 59.74552924242462 76.79999804382484 59.74000585708562 C 67.37249974482815 59.734482471746624 59.725524463809236 67.3725017016352 59.72 76.79999999999998 L 59.72 76.8 C 59.725499200506064 86.22293898743027 67.35707392337451 93.8634604567499 76.78 93.88 Z" stroke-linecap="round" />
</g>
		<g transform="matrix(1 0 0 1 -78.23 -129.25)"  >
<path style="stroke: none; stroke-width: 1; stroke-dasharray: none; stroke-linecap: butt; stroke-dashoffset: 0; stroke-linejoin: miter; stroke-miterlimit: 4; fill: rgb(62,68,82); fill-rule: nonzero; opacity: 1;" vector-effect="non-scaling-stroke"  transform=" translate(-177.61, -126.82)" d="M 159.51 120.78 L 183.64999999999998 144.92000000000002 C 186.98303846522882 148.2502770414797 192.38472295852029 148.24803846522886 195.71499999999997 144.91500000000002 C 199.04527704147966 141.58196153477118 199.04303846522882 136.1802770414797 195.70999999999998 132.85000000000002 L 171.57999999999998 108.72000000000003 C 168.2497229585203 105.38696153477119 162.84803846522883 105.38472295852034 159.515 108.71500000000003 C 156.18196153477115 112.04527704147972 156.1797229585203 117.44696153477119 159.51 120.78000000000003 Z" stroke-linecap="round" />
</g>
		<g transform="matrix(1 0 0 1 179.35 -213.4)"  >
<path style="stroke: none; stroke-width: 1; stroke-dasharray: none; stroke-linecap: butt; stroke-dashoffset: 0; stroke-linejoin: miter; stroke-miterlimit: 4; fill: rgb(62,68,82); fill-rule: nonzero; opacity: 1;" vector-effect="non-scaling-stroke"  transform=" translate(-435.19, -42.67)" d="M 435.18 59.74 C 444.60749830026015 59.745521228398516 452.2544718337577 52.107500248939886 452.2599941406265 42.68000194931139 C 452.2655164474952 33.25250364968289 444.62749634282153 25.605529242424623 435.19999804382485 25.600005857085627 C 425.77249974482817 25.59448247174663 418.12552446380926 33.23250170163521 418.12 42.66 L 418.12 42.660000000000004 C 418.12549920050606 52.08293898743027 425.7570739233745 59.723460456749905 435.18 59.74 Z" stroke-linecap="round" />
</g>
		<g transform="matrix(1 0 0 1 178 -8.27)"  >
<path style="stroke: none; stroke-width: 1; stroke-dasharray: none; stroke-linecap: butt; stroke-dashoffset: 0; stroke-linejoin: miter; stroke-miterlimit: 4; fill: rgb(62,68,82); fill-rule: nonzero; opacity: 1;" vector-effect="non-scaling-stroke"  transform=" translate(-433.84, -247.8)" d="M 454.75 181.71 C 440.88 195.58 436.12 218.17000000000002 431.52 240.01 C 427.44 259.4 423.21999999999997 279.46 412.94 289.74 L 400.87 301.8 C 397.5369615347712 305.1496070077238 397.5503929922762 310.56696153477117 400.9 313.90000000000003 C 404.24960700772374 317.23303846522884 409.6669615347712 317.21960700772377 413 313.87 L 425 301.8 C 438.86 287.94 443.61 265.37 448.21 243.53 C 452.29999999999995 224.12 456.53 204.06 466.79999999999995 193.78 C 470.13303846522876 190.4497229585203 470.13527704147964 185.04803846522884 466.80499999999995 181.715 C 463.47472295852026 178.38196153477116 458.07303846522876 178.37972295852032 454.73999999999995 181.71 L 454.73999999999995 181.71 Z" stroke-linecap="round" />
</g>
		<g transform="matrix(1 0 0 1 175.08 -157.84)"  >
<path style="stroke: none; stroke-width: 1; stroke-dasharray: none; stroke-linecap: butt; stroke-dashoffset: 0; stroke-linejoin: miter; stroke-miterlimit: 4; fill: rgb(62,68,82); fill-rule: nonzero; opacity: 1;" vector-effect="non-scaling-stroke"  transform=" translate(-430.93, -98.23)" d="M 509.48 181.71 L 370.48 42.71000000000001 L 398.58000000000004 14.610000000000007 C 401.74916804774136 11.240675631296272 401.66840910096994 5.9631461906049115 398.39763145518253 2.6923685448174908 C 395.12685380939513 -0.5784091009699299 389.8493243687037 -0.6591680477413355 386.48 2.510000000000005 L 352.35 36.64 C 349.0498757239782 39.959323735175715 349.0498757239782 45.320676264824286 352.35 48.64 L 352.35 48.64 L 497.42 193.78 C 500.7530384652288 197.1102770414797 506.1547229585203 197.10803846522884 509.485 193.775 C 512.8152770414797 190.44196153477117 512.8130384652288 185.0402770414797 509.48 181.71 Z" stroke-linecap="round" />
</g>
		<g transform="matrix(1 0 0 1 -21.78 106.04)"  >
<path style="stroke: none; stroke-width: 1; stroke-dasharray: none; stroke-linecap: butt; stroke-dashoffset: 0; stroke-linejoin: miter; stroke-miterlimit: 4; fill: rgb(62,68,82); fill-rule: nonzero; opacity: 1;" vector-effect="non-scaling-stroke"  transform=" translate(-234.06, -362.11)" d="M 316.4 253.53 C 313.0669615347711 250.19696153477116 307.6630384652288 250.19696153477116 304.33 253.53000000000003 C 300.9969615347711 256.86303846522884 300.9969615347711 262.2669615347712 304.33 265.6 L 394.84 356.11 C 401.42442547880285 362.7899141476105 401.38576368321867 373.531080354518 394.7534220188683 380.16342201886835 C 388.12108035451797 386.7957636832187 377.37991414761046 386.83442547880287 370.7 380.25 L 280.19 289.74 C 276.8597229585203 286.4069615347712 271.4580384652288 286.4047229585203 268.125 289.735 C 264.7919615347712 293.0652770414797 264.7897229585203 298.4669615347712 268.12 301.8 L 382.77 416.45 C 389.35442547880285 423.12991414761046 389.3157636832187 433.87108035451797 382.6834220188683 440.5034220188683 C 376.051080354518 447.13576368321867 365.30991414761047 447.17442547880285 358.63 440.59 L 250 332 C 248.10122327903662 329.4621652977366 244.9518592119741 328.1863949255171 241.82214600498787 328.6872474528153 C 238.69243279800165 329.1880999801136 236.09848213796 331.38298130784113 235.08651642505436 334.3866263281437 C 234.07455071214872 337.3902713484463 234.81145019916863 340.7073579037787 237 343 C 237.3031591831158 343.36220028898265 237.63779971101738 343.6968408168842 238 344 L 334.54 440.54 C 341.18931511600135 447.2130111723041 341.18931511600135 458.006988827696 334.54 464.68 C 327.79059067910197 471.13211969511445 317.1594093208981 471.13211969511445 310.41 464.68 L 298.33000000000004 452.62 L 298.33000000000004 452.62 L 219.88 374.2 C 216.52822835621544 371.0001449493819 211.23489434572372 371.06150659631584 207.95820047101978 374.3382004710198 C 204.68150659631584 377.6148943457237 204.62014494938185 382.90822835621543 207.82 386.26 L 286.25 464.7 C 292.9133155067085 471.3633155067085 292.9133155067085 482.1666844932914 286.25 488.83 C 279.5866844932915 495.4933155067085 268.78331550670856 495.49331550670854 262.12 488.83 L 262.12 488.83 L 117 343.85 C 94.87 321.72 90.07 293.85 85.83 269.20000000000005 C 82.26 248.49000000000004 78.89 228.94000000000005 65.83 215.85000000000005 C 62.49972295852031 212.5003929922763 57.084607007723754 212.48472295852036 53.73499999999999 215.81500000000005 C 50.38539299227623 219.14527704147974 50.36972295852031 224.5603929922763 53.7 227.91000000000005 C 62.959999999999994 237.17000000000004 65.69999999999999 253.36000000000004 68.97999999999999 272.1 C 73.41 297.88 78.97999999999999 329.95000000000005 104.89999999999999 355.91 L 250 500.91 C 258.9132040373084 509.8081813384896 272.0005247169037 513.0781814562555 284.0515329641487 509.4181216796712 C 296.1025412113936 505.7580619030869 305.16081433963745 495.76213516891727 307.62 483.41 C 320.7146092181621 489.46012935075305 336.1829585340188 486.8204521608973 346.53 476.77000000000004 C 351.3226618138169 471.9946063703652 354.58164685745385 465.8979367000572 355.89 459.26000000000005 C 370.8883930532852 466.4763323756731 388.9047979787081 461.8216492899226 398.5307487308885 448.24341968317276 C 408.1566994830689 434.6651900764229 406.5846230595402 416.12373660631545 394.81 404.36000000000007 L 391.57 401.12000000000006 C 403.36251003721145 397.97814915288996 412.58008119508656 388.77888019093433 415.74536401747247 376.9926380257008 C 418.9106468398584 365.20639586046724 415.5419034994097 352.6269787121621 406.91 344 Z" stroke-linecap="round" />
</g>
		<g transform="matrix(1 0 0 1 -174.95 -132.12)"  >
<path style="stroke: none; stroke-width: 1; stroke-dasharray: none; stroke-linecap: butt; stroke-dashoffset: 0; stroke-linejoin: miter; stroke-miterlimit: 4; fill: rgb(62,68,82); fill-rule: nonzero; opacity: 1;" vector-effect="non-scaling-stroke"  transform=" translate(-80.89, -123.95)" d="M 159.61 70.78 L 108.41000000000001 19.58 C 105.05822835621547 16.380144949381723 99.76489434572365 16.441506596315637 96.48820047101964 19.71820047101964 C 93.21150659631564 22.99489434572364 93.15014494938171 28.288228356215456 96.35 31.64 L 141.51999999999998 76.81 L 2.519999999999982 215.81 C 0.18789615343975097 217.9163280547237 -0.7972082410896739 221.13432040177312 -0.04384405655314083 224.18518398946674 C 0.7095201279833925 227.23604757716035 3.079321397682836 229.62559719077393 6.12382805441466 230.40425336802593 C 9.168334711146484 231.18290954527794 12.394391249054877 230.22454394280226 14.51999999999998 227.91 L 14.519999999999982 227.91 L 159.61 82.85 C 162.89923096441748 79.52619002108015 162.89923096441748 74.17380997891982 159.61 70.85 Z" stroke-linecap="round" />
</g>
		<g transform="matrix(1 0 0 1 -115.82 173.51)"  >
<path style="stroke: none; stroke-width: 1; stroke-dasharray: none; stroke-linecap: butt; stroke-dashoffset: 0; stroke-linejoin: miter; stroke-miterlimit: 4; fill: rgb(62,68,82); fill-rule: nonzero; opacity: 1;" vector-effect="non-scaling-stroke"  transform=" translate(-140.03, -429.57)" d="M 209.86 493.37 C 205.11 495.86 196.99 496.16 189.68 488.86 C 182.37 481.56 182.42000000000002 473.03000000000003 184.8 469.33000000000004 C 187.17720356497512 465.6607192237394 186.3952761091296 460.788135796561 182.9893458616673 458.0469029801465 C 179.58341561420497 455.3056701637321 174.65631187108494 455.58339035664477 171.58 458.69000000000005 C 164.90008585238968 465.2744254788039 154.15891964548143 465.23576368322017 147.52657798113066 458.6034220188694 C 140.8942363167799 451.9710803545187 140.85557452119616 441.22991414761043 147.44 434.55000000000007 C 150.77303846522884 431.21696153477126 150.77303846522884 425.8130384652289 147.44 422.4800000000001 C 144.10696153477116 419.14696153477126 138.70303846522884 419.14696153477126 135.37 422.4800000000001 L 135.37 422.4800000000001 L 129.37 428.4800000000001 C 122.70668449329149 435.1433155067086 111.90331550670854 435.1433155067086 105.24000000000001 428.4800000000001 C 98.57668449329148 421.8166844932916 98.57668449329148 411.0133155067086 105.24000000000001 404.3500000000001 L 105.24000000000001 404.3500000000001 L 111.24000000000001 398.3500000000001 C 114.17897607018458 395.3159774044651 114.45830408651179 390.5891562140345 111.8971219552433 387.23010582116973 C 109.33593982397484 383.8710554283049 104.70381418101586 382.8890805127135 101 384.92 C 96.36 387.6 88.19 387.29 81.14 380.25 C 73.65 372.76 73.69 364.45 76.14 360.95 C 79.00400107941807 357.24970769218646 78.35245727907476 351.9329470436338 74.67971416582263 349.0337017331726 C 71.0069710525705 346.1344564227115 65.68422455822534 346.7351417602218 62.75 350.38 C 62.52309796400964 350.6562748072248 62.31908935364816 350.9505823106971 62.14 351.26 C 55.230000000000004 361.26 55.42 378.58 69.14 392.31 C 73.83446066358646 397.1621445393529 79.73687747673182 400.6759809813306 86.24000000000001 402.49 C 80.90966181052254 414.41337770598693 82.84672925928247 428.3327183219321 91.23008417168684 438.3476472556037 C 99.61343908409123 448.36257618927533 112.97467633904196 452.71890635360666 125.65 449.57 C 127.26518189426075 468.3298108398442 143.77974164148884 482.229975658262 162.54000000000002 480.62 C 163.93059747773998 480.4965784558948 165.31290138918718 480.29290565734823 166.68 480.01 C 167.99510647205173 487.9927437255168 171.8532596945812 495.3372644964047 177.67999999999998 500.95 C 185.57 508.83 194.79000000000002 511.95 203.20000000000002 511.95 C 208.29143915208695 511.96870262287416 213.31384967678858 510.77223759002715 217.85000000000002 508.46 C 222.00103786296208 506.26200837665914 223.59403603691362 501.121744700888 221.41344018957807 496.9615422699233 C 219.23284434224254 492.8013398389587 214.09929409880613 491.18683813974036 209.93000000000004 493.34999999999997 Z" stroke-linecap="round" />
</g>
</g>
</g>
<g transform="matrix(1 0 0 1 -723.02 965.84)"  >
<g style="" vector-effect="non-scaling-stroke"   >
		<g transform="matrix(1 0 0 1 -153 160)"  >
<path style="stroke: none; stroke-width: 1; stroke-dasharray: none; stroke-linecap: butt; stroke-dashoffset: 0; stroke-linejoin: miter; stroke-miterlimit: 4; fill: rgb(62,68,82); fill-rule: nonzero; opacity: 1;" vector-effect="non-scaling-stroke"  transform=" translate(-96, -408)" d="M 48 448 L 144 448 L 144 368 L 48 368 Z M 64 384 L 128 384 L 128 432 L 64 432 Z" stroke-linecap="round" />
</g>
		<g transform="matrix(1 0 0 1 -25 160)"  >
<path style="stroke: none; stroke-width: 1; stroke-dasharray: none; stroke-linecap: butt; stroke-dashoffset: 0; stroke-linejoin: miter; stroke-miterlimit: 4; fill: rgb(62,68,82); fill-rule: nonzero; opacity: 1;" vector-effect="non-scaling-stroke"  transform=" translate(-224, -408)" d="M 176 368 L 176 448 L 272 448 L 272 368 Z M 256 432 L 192 432 L 192 384 L 256 384 Z" stroke-linecap="round" />
</g>
		<g transform="matrix(1 0 0 1 -169 -120)"  >
<path style="stroke: none; stroke-width: 1; stroke-dasharray: none; stroke-linecap: butt; stroke-dashoffset: 0; stroke-linejoin: miter; stroke-miterlimit: 4; fill: rgb(62,68,82); fill-rule: nonzero; opacity: 1;" vector-effect="non-scaling-stroke"  transform=" translate(-80, -128)" d="M 112 168 L 112 88 C 112 74.74516600406096 101.25483399593904 64 88 64 L 72 64 C 58.745166004060955 64 48 74.74516600406096 48 88 L 48 168 C 48 181.25483399593904 58.745166004060955 192 72 192 L 88 192 C 101.25483399593904 192 112 181.25483399593904 112 168 Z M 64 168 L 64 88 C 64 83.58172200135365 67.58172200135365 80 72 80 L 88 80 C 92.41827799864635 80 96 83.58172200135365 96 88 L 96 168 C 96 172.41827799864635 92.41827799864635 176 88 176 L 72 176 C 67.58172200135365 176 64 172.41827799864635 64 168 Z" stroke-linecap="round" />
</g>
		<g transform="matrix(1 0 0 1 0 0)"  >
<path style="stroke: none; stroke-width: 1; stroke-dasharray: none; stroke-linecap: butt; stroke-dashoffset: 0; stroke-linejoin: miter; stroke-miterlimit: 4; fill: rgb(62,68,82); fill-rule: nonzero; opacity: 1;" vector-effect="non-scaling-stroke"  transform=" translate(-249, -248)" d="M 399.21 197.44 C 390.2853997328626 190.44042999298236 377.7346002671374 190.44042999298236 368.81 197.44 L 355.87 208 L 223.32 208 C 223.73629252038558 205.35285724638842 223.96353400562123 202.67942800832216 224 200.00000000000003 L 224 168 L 324.28 168 L 340 144.42 L 355.72 168 L 372.28000000000003 168 L 388 144.42 L 403.72 168 L 420.28000000000003 168 L 436 144.42 L 451.72 168 L 468 168 L 498 128 L 468 88 L 224 88 L 224 56 C 223.96143232349775 25.088043358000693 198.9119566419993 0.038567676502268 168 1.4210854715202004e-14 L 56 0 C 25.088043358000693 0.03856767650226363 0.038567676502268 25.0880433580007 1.4210854715202004e-14 56.00000000000001 L 0 200 C 0.0485364822189487 221.6162590490549 12.562168402326801 241.26495902942963 32.129999999999995 250.45 L 0 276.16 L 0 336 L 16 336 L 16 496 L 480 496 L 480 310.48 C 488.20486562216985 307.6657632695282 494.22893177562696 300.6105763218566 495.72270985939764 292.06608246385383 C 497.21648794316826 283.521588605851 493.943397630938 274.84104048399786 487.18 269.41 Z M 379 209.79 C 381.97105255578475 207.46016982913872 386.14894744421525 207.46016982913872 389.12 209.79 L 477.12 281.78999999999996 C 478.76497106305834 283.1315753735702 479.8093320065559 285.0719043368002 480.02314580914805 287.18378452731537 C 480.2369596117402 289.29566471783056 479.60269569879324 291.4059432668817 478.26 293.04999999999995 L 478.26 293.04999999999995 C 475.4103190131821 296.36788340581035 470.46156980927253 296.8733062818757 467 294.2 L 384 226.33999999999997 L 301.09000000000003 294.17999999999995 C 297.625375823434 296.8670051154909 292.66335521371883 296.3703635487081 289.8 293.04999999999995 C 287.01744193323896 289.62941476311795 287.5273153161125 284.6022421109265 290.94 281.80999999999995 Z M 280.8 269.43 C 270.5551293900081 277.82089386742354 269.0425695455164 292.924117166712 277.42 303.18 C 280.1973940867018 306.5182794902237 283.86673390141124 308.9980318224706 288 310.33 L 288 320 L 16 320 L 16 288 L 256 288 L 256 272 L 30.81 272 L 90.81 224 L 336.32 224 Z M 304 152 L 224 152 L 224 136 L 296 136 C 300.4182779986464 136 304 139.58172200135365 304 144 Z M 460 104 L 478 128 L 460.15 151.81 L 444.28 128 L 427.72 128 L 412 151.58 L 396.28 128 L 379.72 128 L 364 151.58 L 348.28 128 L 331.72 128 L 320 145.58 L 320 144 C 320 130.74516600406096 309.25483399593907 120 296 120 L 224 120 L 224 104 Z M 16 200 L 16 56 C 16 33.908610006768264 33.908610006768264 16 56 16 L 168 16 C 190.09138999323173 16 208 33.90861000676826 208 55.99999999999999 L 208 200 C 207.97905766038355 202.69016674950626 207.68081423822855 205.37100649921433 207.11 208 L 85.19 208 L 46.71 238.78 C 28.722259305928223 234.53379565373143 16.01089254734115 218.4821250937182 15.999999999999996 200 Z M 32 336 L 288 336 L 288 480 L 32 480 Z M 432 480 L 416 480 L 416 384 L 352 384 L 352 480 L 336 480 L 336 400 C 336 373.4903320081219 357.4903320081219 352 384 352 C 410.5096679918781 352 432 373.4903320081219 432 400 Z M 400 480 L 368 480 L 368 400 L 400 400 Z M 448 480 L 448 400 C 448 364.65377601082923 419.34622398917077 336 384 336 C 348.65377601082923 336 320 364.65377601082923 320 400 L 320 480 L 304 480 L 304 310.4 C 306.60568022190836 309.5737951063814 309.0388252488154 308.2792806213139 311.18 306.58 L 384 247 L 456.82 306.57 C 458.97069288157587 308.29861026605124 461.3982616859664 309.6510162852103 464 310.57 L 464 480 Z" stroke-linecap="round" />
</g>
</g>
</g>
<g transform="matrix(1 0 0 1 -1016.58 1047.38)"  >
<g style="" vector-effect="non-scaling-stroke"   >
		<g transform="matrix(1 0 0 1 -0.04 200)"  >
<path style="stroke: none; stroke-width: 1; stroke-dasharray: none; stroke-linecap: butt; stroke-dashoffset: 0; stroke-linejoin: miter; stroke-miterlimit: 4; fill: rgb(104,115,137); fill-rule: nonzero; opacity: 1;" vector-effect="non-scaling-stroke"  transform=" translate(-240.07, -440)" d="M 224.07 432 L 256.07 432 L 256.07 448 L 224.07 448 Z" stroke-linecap="round" />
</g>
		<g transform="matrix(1 0 0 1 -0.04 -32)"  >
<path style="stroke: none; stroke-width: 1; stroke-dasharray: none; stroke-linecap: butt; stroke-dashoffset: 0; stroke-linejoin: miter; stroke-miterlimit: 4; fill: rgb(104,115,137); fill-rule: nonzero; opacity: 1;" vector-effect="non-scaling-stroke"  transform=" translate(-240.07, -208)" d="M 224.07 200 L 256.07 200 L 256.07 216 L 224.07 216 Z" stroke-linecap="round" />
</g>
		<g transform="matrix(1 0 0 1 0 0)"  >
<path style="stroke: none; stroke-width: 1; stroke-dasharray: none; stroke-linecap: butt; stroke-dashoffset: 0; stroke-linejoin: miter; stroke-miterlimit: 4; fill: rgb(104,115,137); fill-rule: nonzero; opacity: 1;" vector-effect="non-scaling-stroke"  transform=" translate(-240.11, -240)" d="M 456.07 120 L 448.07 120 L 448.07 104 L 432.07 104 L 432.07 120 L 409.67 120 C 390.47 92.8 364.87 71.2 336.07000000000005 55.2 L 336.07000000000005 24 C 336.1878747184129 17.59939607643183 333.69718063662117 11.4261750987554 329.1705027689329 6.899497231067155 C 324.64382490124467 2.372819363378909 318.4706039235682 -0.11787471841282482 312.07000000000005 0 L 168.07000000000005 0 C 161.66939607643187 -0.11787471841282395 155.49617509875543 2.3728193633789108 150.9694972310672 6.899497231067155 C 146.44281936337896 11.4261750987554 143.95212528158723 17.59939607643183 144.07000000000005 24.000000000000004 L 144.07000000000005 55.2 C 108.98530256953623 73.63794079281776 79.85604140668835 101.65751581612855 60.07000000000002 136.00000000000003 C 24.870000000000047 138.4 -1.5299999999999514 168.8 0.07000000000005002 204 C 1.682321012579317 225.70712158999928 13.974433894565845 245.19461762241693 32.87000000000005 256 C 34.39398246810567 275.11256375235087 38.428679835796544 293.9411514682417 44.870000000000076 312.0000000000001 C 34.30723716350812 319.05911329736034 27.009380188394665 330.05237439316403 24.60460368257141 342.5271525171222 C 22.19982717674815 355.0019306410803 24.888222396548407 367.9202524009638 32.07000000000005 378.4 C 33.67000000000005 380.79999999999995 36.07000000000005 383.2 37.67000000000005 385.59999999999997 L 72.07 420 L 98.47 393.6 C 112.1296396772785 406.3085348860442 127.4736574740783 417.07626667327213 144.06999999999988 425.5999999999999 L 144.07 456 C 143.95212528158717 462.40060392356816 146.4428193633789 468.5738249012446 150.96949723106715 473.10050276893287 C 155.4961750987554 477.6271806366211 161.66939607643184 480.11787471841285 168.07 480 L 312.07 480 C 318.47060392356815 480.11787471841285 324.6438249012446 477.6271806366211 329.1705027689328 473.10050276893287 C 333.69718063662106 468.5738249012446 336.18787471841284 462.40060392356816 336.07 456 L 336.07 424.8 C 348.07 418.40000000000003 358.46999999999997 412 368.87 403.2 C 392.87 429.59999999999997 432.87 431.2 459.27 407.2 C 485.66999999999996 383.2 487.27 343.2 463.27 316.79999999999995 C 456.87 309.59999999999997 448.07 303.99999999999994 439.27 299.99999999999994 C 444.2036011461729 283.06512078772806 447.15665941793486 265.6152310000439 448.07000000000005 247.9999999999999 L 456.07 247.99999999999994 C 462.47060392356815 248.11787471841276 468.6438249012446 245.62718063662103 473.1705027689328 241.10050276893278 C 477.69718063662106 236.57382490124456 480.18787471841284 230.40060392356813 480.07 223.99999999999994 L 480.07 144 C 480.18787471841284 137.59939607643182 477.6971806366211 131.4261750987554 473.17050276893286 126.89949723106716 C 468.6438249012446 122.37281936337891 462.47060392356815 119.88212528158718 456.07 120 Z M 464.07 144 L 464.07 152 L 368.07 152 L 368.07 144 C 367.9402255968703 141.84109303571773 368.74131787007855 139.72998446718722 370.27065116863287 138.2006511686329 C 371.7999844671872 136.67131787007855 373.9110930357177 135.87022559687028 376.07 136 L 456.07 136 C 458.22890696428226 135.87022559687028 460.3400155328128 136.67131787007855 461.8693488313671 138.20065116863287 C 463.39868212992144 139.72998446718722 464.1997744031297 141.84109303571773 464.07 144 Z M 160.07 24 C 159.94022559687028 21.84109303571774 160.74131787007855 19.729984467187215 162.27065116863287 18.200651168632888 C 163.79998446718722 16.67131787007856 165.91109303571773 15.870225596870291 168.07 16 L 312.07 16 C 314.22890696428226 15.870225596870291 316.3400155328128 16.67131787007856 317.8693488313671 18.200651168632888 C 319.39868212992144 19.729984467187215 320.1997744031297 21.841093035717737 320.07 23.999999999999996 L 320.07 104 C 320.1997744031297 106.15890696428227 319.39868212992144 108.27001553281278 317.8693488313671 109.79934883136711 C 316.3400155328128 111.32868212992143 314.22890696428226 112.12977440312972 312.07 112 L 260.87 112 L 240.07 132.8 L 219.27 112 L 168.07 112 C 165.91109303571773 112.12977440312972 163.79998446718722 111.32868212992143 162.2706511686329 109.79934883136711 C 160.74131787007855 108.27001553281279 159.94022559687028 106.15890696428227 160.07 104 Z M 16.069999999999993 200 C 16.069999999999993 173.49033200812192 37.560332008121904 152 64.07 152 C 90.57966799187808 152 112.07 173.4903320081219 112.07 200 C 112.07 226.50966799187808 90.5796679918781 248 64.07000000000001 248 C 37.59224664958177 247.92310912898253 16.146890871017455 226.47775335041823 16.069999999999993 200 Z M 72.07 396.8 L 49.669999999999995 374.40000000000003 C 37.669999999999995 362.40000000000003 37.669999999999995 342.40000000000003 49.669999999999995 329.6 C 55.58316244974261 323.5780347319866 63.63122346127122 320.12886572704576 72.07 320 L 72.86999999999999 320 C 90.09214777689988 320.02203732426995 104.04796267573003 333.97785222310006 104.07 351.2 C 104.07 359.2 100.86999999999999 368 94.47 373.59999999999997 Z M 320.07 400 L 160.07 400 L 160.07 192 C 159.94022559687028 189.84109303571773 160.74131787007855 187.72998446718722 162.27065116863287 186.2006511686329 C 163.79998446718722 184.67131787007855 165.91109303571773 183.87022559687028 168.07 184 L 312.07 184 C 314.22890696428226 183.87022559687028 316.3400155328128 184.67131787007855 317.8693488313671 186.20065116863287 C 319.39868212992144 187.72998446718722 320.1997744031297 189.84109303571773 320.07 192 Z M 312.07 464 L 168.07 464 C 165.91109303571773 464.1297744031297 163.79998446718722 463.32868212992145 162.2706511686329 461.7993488313671 C 160.74131787007855 460.2700155328128 159.94022559687028 458.15890696428227 160.07 456 L 160.07 416 L 320.07 416 L 320.07 456 C 320.1997744031297 458.15890696428227 319.39868212992144 460.2700155328128 317.8693488313671 461.7993488313671 C 316.3400155328128 463.32868212992145 314.22890696428226 464.1297744031297 312.07 464 Z M 464.07 360 C 464.07 386.5096679918781 442.57966799187807 408 416.07 408 C 389.5603320081219 408 368.07 386.5096679918781 368.07 360 C 368.07 333.4903320081219 389.5603320081219 312 416.07 312 C 442.54775335041825 312.07689087101744 463.99310912898255 333.5222466495818 464.07 360 Z M 423.27 296.8 C 388.07 292.8 356.07 317.6 352.07 352.8 C 350.4022318464566 365.78034708873184 352.9248540315251 378.95404072186744 359.27 390.4000000000001 C 351.8593341514967 396.186689697733 344.11243649360205 401.5293777376603 336.06999999999994 406.4 L 336.07 192 C 336.18787471841284 185.59939607643182 333.6971806366211 179.4261750987554 329.17050276893286 174.89949723106716 C 324.6438249012446 170.3728193633789 318.47060392356815 167.88212528158718 312.07 168 L 168.07 168 C 161.6693960764318 167.88212528158718 155.49617509875537 170.3728193633789 150.96949723106715 174.89949723106716 C 146.4428193633789 179.4261750987554 143.95212528158717 185.59939607643184 144.07 192 L 144.07 406.4 C 131.77256429864127 399.04378821588443 120.24768161625717 390.46713133597063 109.67 380.7999999999999 C 125.66999999999999 359.99999999999994 122.46999999999998 330.4 101.66999999999999 314.4 C 93.26486433662555 307.6829706197677 82.82939210652323 304.0164533497317 72.06999999999995 304 L 71.27 304 C 67.2272488497369 304.1389959008953 63.20793780900376 304.67490403965974 59.26999999999999 305.6 C 54.47 292 50.47 276.8 48.87 262.40000000000003 C 83.3325683894415 270.3529003975635 117.71709960243658 248.86256838944155 125.66999999999999 214.40000000000003 C 133.62290039756343 179.93743161055852 112.13256838944153 145.55290039756346 77.67000000000002 137.60000000000002 L 76.87 137.60000000000002 C 93.58410620262974 111.2777777579554 116.3505696961819 89.33419848706177 143.26999999999998 73.60000000000005 L 143.27 104 C 143.1521252815872 110.40060392356817 145.64281936337892 116.5738249012446 150.16949723106717 121.10050276893284 C 154.69617509875542 125.62718063662109 160.86939607643183 128.11787471841282 167.27 128 L 212.07 128 L 239.26999999999998 155.2 L 266.46999999999997 127.99999999999999 L 312.07 127.99999999999999 C 318.47060392356815 128.11787471841282 324.6438249012446 125.62718063662108 329.1705027689328 121.10050276893284 C 333.69718063662106 116.57382490124459 336.18787471841284 110.40060392356816 336.07 103.99999999999999 L 336.07 73.6 C 356.72811240007013 85.51270674863758 374.92074069776004 101.26154915559312 389.66999999999996 120.00000000000004 L 376.07 120 C 369.66939607643184 119.88212528158718 363.4961750987554 122.37281936337891 358.9694972310671 126.89949723106716 C 354.44281936337893 131.4261750987554 351.95212528158714 137.59939607643184 352.07 144 L 352.07 224 C 351.95212528158714 230.40060392356818 354.44281936337893 236.57382490124462 358.9694972310671 241.10050276893284 C 363.4961750987554 245.6271806366211 369.66939607643184 248.11787471841282 376.07 248 L 432.07 248 C 431.1546843982249 264.5666611090835 428.1990273404476 280.9571229749394 423.27 296.8 Z M 456.07 232 L 376.07 232 C 373.9110930357177 232.12977440312972 371.7999844671872 231.32868212992145 370.27065116863287 229.79934883136713 C 368.74131787007855 228.27001553281278 367.9402255968703 226.15890696428227 368.07 224 L 368.07 168 L 464.07 168 L 464.07 224 C 464.1997744031297 226.15890696428227 463.39868212992144 228.27001553281278 461.8693488313671 229.7993488313671 C 460.3400155328128 231.32868212992145 458.22890696428226 232.12977440312972 456.07 232 Z" stroke-linecap="round" />
</g>
		<g transform="matrix(1 0 0 1 -165.64 -44.8)"  >
<path style="stroke: none; stroke-width: 1; stroke-dasharray: none; stroke-linecap: butt; stroke-dashoffset: 0; stroke-linejoin: miter; stroke-miterlimit: 4; fill: rgb(104,115,137); fill-rule: nonzero; opacity: 1;" vector-effect="non-scaling-stroke"  transform=" translate(-74.47, -195.2)" d="M 92.87 209.6 L 72.07 196 L 72.07 168 L 56.06999999999999 168 L 56.06999999999999 204 L 83.27 222.4 Z" stroke-linecap="round" />
</g>
		<g transform="matrix(1 0 0 1 159.96 -40)"  >
<path style="stroke: none; stroke-width: 1; stroke-dasharray: none; stroke-linecap: butt; stroke-dashoffset: 0; stroke-linejoin: miter; stroke-miterlimit: 4; fill: rgb(104,115,137); fill-rule: nonzero; opacity: 1;" vector-effect="non-scaling-stroke"  transform=" translate(-400.07, -200)" d="M 392.07 184 L 408.07 184 L 408.07 216 L 392.07 216 Z" stroke-linecap="round" />
</g>
		<g transform="matrix(1 0 0 1 191.96 -40)"  >
<path style="stroke: none; stroke-width: 1; stroke-dasharray: none; stroke-linecap: butt; stroke-dashoffset: 0; stroke-linejoin: miter; stroke-miterlimit: 4; fill: rgb(104,115,137); fill-rule: nonzero; opacity: 1;" vector-effect="non-scaling-stroke"  transform=" translate(-432.07, -200)" d="M 424.07 184 L 440.07 184 L 440.07 216 L 424.07 216 Z" stroke-linecap="round" />
</g>
		<g transform="matrix(1 0 0 1 -168.04 200)"  >
<path style="stroke: none; stroke-width: 1; stroke-dasharray: none; stroke-linecap: butt; stroke-dashoffset: 0; stroke-linejoin: miter; stroke-miterlimit: 4; fill: rgb(104,115,137); fill-rule: nonzero; opacity: 1;" vector-effect="non-scaling-stroke"  transform=" translate(-72.07, -440)" d="M 40.07 432 L 104.07 432 L 104.07 448 L 40.06999999999999 448 Z" stroke-linecap="round" />
</g>
		<g transform="matrix(1 0 0 1 15.96 -192)"  >
<path style="stroke: none; stroke-width: 1; stroke-dasharray: none; stroke-linecap: butt; stroke-dashoffset: 0; stroke-linejoin: miter; stroke-miterlimit: 4; fill: rgb(104,115,137); fill-rule: nonzero; opacity: 1;" vector-effect="non-scaling-stroke"  transform=" translate(-256.07, -48)" d="M 208.07 40 L 304.07 40 L 304.07 56 L 208.07 56 Z" stroke-linecap="round" />
</g>
		<g transform="matrix(1 0 0 1 15.96 -152)"  >
<path style="stroke: none; stroke-width: 1; stroke-dasharray: none; stroke-linecap: butt; stroke-dashoffset: 0; stroke-linejoin: miter; stroke-miterlimit: 4; fill: rgb(104,115,137); fill-rule: nonzero; opacity: 1;" vector-effect="non-scaling-stroke"  transform=" translate(-256.07, -88)" d="M 208.07 80 L 304.07 80 L 304.07 96 L 208.07 96 Z" stroke-linecap="round" />
</g>
		<g transform="matrix(1 0 0 1 175.96 104)"  >
<path style="stroke: none; stroke-width: 1; stroke-dasharray: none; stroke-linecap: butt; stroke-dashoffset: 0; stroke-linejoin: miter; stroke-miterlimit: 4; fill: rgb(104,115,137); fill-rule: nonzero; opacity: 1;" vector-effect="non-scaling-stroke"  transform=" translate(-416.07, -344)" d="M 408.07 328 L 424.07 328 L 424.07 360 L 408.07 360 Z" stroke-linecap="round" />
</g>
		<g transform="matrix(1 0 0 1 175.96 144)"  >
<path style="stroke: none; stroke-width: 1; stroke-dasharray: none; stroke-linecap: butt; stroke-dashoffset: 0; stroke-linejoin: miter; stroke-miterlimit: 4; fill: rgb(104,115,137); fill-rule: nonzero; opacity: 1;" vector-effect="non-scaling-stroke"  transform=" translate(-416.07, -384)" d="M 408.07 376 L 424.07 376 L 424.07 392 L 408.07 392 Z" stroke-linecap="round" />
</g>
		<g transform="matrix(1 0 0 1 -56.04 -192)"  >
<path style="stroke: none; stroke-width: 1; stroke-dasharray: none; stroke-linecap: butt; stroke-dashoffset: 0; stroke-linejoin: miter; stroke-miterlimit: 4; fill: rgb(104,115,137); fill-rule: nonzero; opacity: 1;" vector-effect="non-scaling-stroke"  transform=" translate(-184.07, -48)" d="M 176.07 40 L 192.07 40 L 192.07 56 L 176.07 56 Z" stroke-linecap="round" />
</g>
		<g transform="matrix(1 0 0 1 -56.04 -152)"  >
<path style="stroke: none; stroke-width: 1; stroke-dasharray: none; stroke-linecap: butt; stroke-dashoffset: 0; stroke-linejoin: miter; stroke-miterlimit: 4; fill: rgb(104,115,137); fill-rule: nonzero; opacity: 1;" vector-effect="non-scaling-stroke"  transform=" translate(-184.07, -88)" d="M 176.07 80 L 192.07 80 L 192.07 96 L 176.07 96 Z" stroke-linecap="round" />
</g>
</g>
</g>
<g transform="matrix(1 0 0 1 540 540)"  >
<g style="" vector-effect="non-scaling-stroke"   >
		<g transform="matrix(1 0 0 1 0 0)"  >
<path style="stroke: none; stroke-width: 1; stroke-dasharray: none; stroke-linecap: butt; stroke-dashoffset: 0; stroke-linejoin: miter; stroke-miterlimit: 4; fill: rgb(176,121,59); fill-rule: nonzero; opacity: 1;" vector-effect="non-scaling-stroke"  transform=" translate(-256, -248.41)" d="M 483.38 257.74 L 483 257.74 L 483 106.37 C 482.9779793092806 100.08795796101961 477.88207825487405 95.00546717254568 471.6 95 L 411.55 95 L 366.67 6.24 C 363.8143243029002 0.6296774005412482 356.9543453797223 -1.6077586474619778 351.34000000000003 1.240000000000002 L 166 95 L 46.19 95 C 21.34194887758007 94.88138533799335 0.8910158373422803 114.51764600771722 0 139.35 L 0 450.63 C 0.027557150820843763 476.1286093261654 20.691390673834608 496.79244284917917 46.19000000000001 496.82 L 471.6 496.82 C 477.8953781797784 496.8089772075294 482.9944970512841 491.70538542473287 483 485.41 L 483 397.56 L 483.37 397.56 C 499.1500714594103 397.54906208902634 511.95043287377393 384.7799974018372 512 369 L 512 286.36 C 511.9834646276603 270.560464703981 499.179535296019 257.7565353723397 483.38 257.74 Z M 460.2 117.74000000000001 L 460.2 162 L 445.45 162 L 423.08 117.8 Z M 173.82999999999998 116.51 L 173.82999999999998 116.51 L 351.46 26.710000000000008 L 394.34999999999997 111.51 L 394.34999999999997 111.51 L 419.89 162 L 397.78 162 C 397.64007705564654 161.60234618868895 397.4730175753868 161.21476819448634 397.28 160.84 L 367.92999999999995 102.84 C 365.6354943310423 98.2921358990425 360.6023160308462 95.81840836463957 355.59999999999997 96.78 L 352.10999999999996 97.45 C 338.6712286897892 99.99359417170135 325.05619378820364 93.98356854029738 317.87999999999994 82.34 L 315.59999999999997 78.63000000000001 C 312.50229201192303 73.56012303132286 306.0256882406762 71.72646453253677 300.72999999999996 74.42000000000002 L 127.49 162 L 84 162 Z M 372.31 162 L 178 162 L 302 99.33 C 313.7789193514394 114.34237042862168 332.3820522241771 122.33666932614076 351.38 120.55 Z M 46.19 117.78 L 120.87 117.78 L 37.08 160.16 C 30.628005386222767 157.3898501265713 25.742932936597615 151.892769350549 23.75 145.16 L 23.69 144.97 C 23.57 144.53 23.46 144.08 23.360000000000003 143.63 C 23.260000000000005 143.17999999999998 23.210000000000004 142.85 23.140000000000004 142.45 C 23.070000000000004 142.04999999999998 23.040000000000003 141.82999999999998 23.000000000000004 141.51 C 22.940000000000005 140.95999999999998 22.890000000000004 140.41 22.860000000000003 139.85 C 23.500413551638925 127.44599524574815 33.769568981225916 117.73145343987653 46.18999999999998 117.78 Z M 460.2 474 L 46.2 474 C 33.288918587917735 473.9779532823018 22.831006881462297 463.5110955435911 22.819999999999997 450.6 L 22.82 445.29 L 371.3 445.29 C 377.5988075718202 445.4777768149425 382.85722318505753 440.5238075718202 383.045 434.225 C 383.2327768149425 427.92619242817983 378.2788075718202 422.6677768149425 371.98 422.48 L 22.81 422.48 L 22.81 178.48000000000002 C 27.447766203418702 181.18299701587247 32.525306906676065 183.04814696753567 37.81000000000001 183.99 L 38.480000000000004 183.99 C 39.160000000000004 184.10000000000002 39.830000000000005 184.20000000000002 40.480000000000004 184.28 L 40.88 184.33 L 40.88 184.33 L 41.88 184.42000000000002 C 42.35 184.42000000000002 42.81 184.52 43.29 184.54000000000002 L 43.64 184.54000000000002 C 44.53 184.54000000000002 45.37 184.61 46.19 184.61 L 460.19 184.61 L 460.19 210 L 108.67 210 C 102.3711924281798 209.81222318505752 97.11277681494246 214.7661924281798 96.925 221.065 C 96.73722318505753 227.3638075718202 101.69119242817979 232.62222318505752 107.99 232.81 L 460.2 232.81 L 460.2 257.81 L 295.2 257.81 C 292.17572042691216 257.8046895799166 289.27348866102466 259.0023592402191 287.1331217232976 261.1389744392297 C 284.99275478557064 263.27558963824026 283.78999533764335 266.17571576455913 283.78999999999996 269.2 L 283.78999999999996 269.2 L 283.78999999999996 386.2 C 283.8010227924706 392.49537817977836 288.90461457526715 397.59449705128407 295.2 397.59999999999997 L 460.2 397.59999999999997 Z M 483.38 374.74 L 306.62 374.74 L 306.62 280.54 L 483.38 280.54 C 484.9209078059678 280.54 486.39870403991074 281.1521232425231 487.48829039869383 282.2417096013062 C 488.57787675747693 283.3312959600893 489.19 284.80909219403225 489.19 286.35 L 489.19 369 L 489.19 369 C 489.1680157109646 372.1931424343385 486.57321811175035 374.7700756783086 483.38 374.77 Z" stroke-linecap="round" />
</g>
		<g transform="matrix(1 0 0 1 107.28 79.24)"  >
<path style="stroke: none; stroke-width: 1; stroke-dasharray: none; stroke-linecap: butt; stroke-dashoffset: 0; stroke-linejoin: miter; stroke-miterlimit: 4; fill: rgb(176,121,59); fill-rule: nonzero; opacity: 1;" vector-effect="non-scaling-stroke"  transform=" translate(-363.28, -327.65)" d="M 363.28 284.59 C 339.498618672286 284.59 320.21999999999997 303.868618672286 320.21999999999997 327.65 C 320.21999999999997 351.43138132771395 339.498618672286 370.71 363.28 370.71 C 387.06138132771395 370.71 406.34 351.43138132771395 406.34 327.65 L 406.34 327.65 C 406.3124469884241 303.8800408578285 387.0499591421715 284.61755301157586 363.28 284.59 Z M 363.28 347.9 C 352.09623582175715 347.9055214828416 343.0255273310359 338.84376582144563 343.0200049390837 327.66000164365164 C 343.0144825471316 316.4762374658577 352.07623747118396 307.4055282385207 363.260001648529 307.400004937458 C 374.44376582587404 307.39448163639526 383.51447578982675 316.45623582310395 383.52 327.64 L 383.52 327.64 C 383.50898578537067 338.81529771752764 374.45529091375977 347.8734657585415 363.28 347.89 Z" stroke-linecap="round" />
</g>
		<g transform="matrix(1 0 0 1 149.99 185.49)"  >
<path style="stroke: none; stroke-width: 1; stroke-dasharray: none; stroke-linecap: butt; stroke-dashoffset: 0; stroke-linejoin: miter; stroke-miterlimit: 4; fill: rgb(176,121,59); fill-rule: nonzero; opacity: 1;" vector-effect="non-scaling-stroke"  transform=" translate(-405.99, -433.91)" d="M 417.16 431.69 C 417.01489247716336 430.9601039409193 416.79714195177553 430.24655221926366 416.51000000000005 429.56 C 416.230209593979 428.85876829645144 415.878320520031 428.18850339369334 415.46000000000004 427.56 C 415.04615085341965 426.93975758801 414.5740070284382 426.3604605545221 414.05 425.83 C 411.34600645039853 423.1474557469438 407.4867433709514 421.9821831083923 403.75 422.71999999999997 C 403.0166629402768 422.8511305534237 402.30160311750524 423.0693412974619 401.62 423.36999999999995 C 400.92017882257704 423.6324329047008 400.24983903021445 423.9676028008821 399.62 424.36999999999995 C 398.9961383724019 424.78313088597815 398.41345590709295 425.2553046078665 397.88 425.78 C 397.34843269263047 426.3036267596799 396.87563073265 426.88373129213824 396.46999999999997 427.51 C 396.051679479969 428.1385033936933 395.699790406021 428.80876829645143 395.41999999999996 429.51 C 394.5548775097337 431.5936685242921 394.32863036036485 433.8874665463549 394.77 436.09999999999997 C 394.92116827122356 436.8283593647121 395.1387441332085 437.54133872783194 395.41999999999996 438.22999999999996 C 395.699790406021 438.9312317035485 396.051679479969 439.6014966063066 396.46999999999997 440.22999999999996 C 396.8831308859782 440.85386162759806 397.3553046078665 441.436544092907 397.88 441.96999999999997 C 398.42103668828133 442.48916653092914 399.0029084796928 442.964027418173 399.62 443.39 C 400.2529916920259 443.8007026262754 400.9224900621261 444.152189270578 401.62 444.44 C 404.41093145357223 445.6000063552604 407.5490685464278 445.6000063552604 410.34000000000003 444.44 C 411.03750993787395 444.152189270578 411.70700830797415 443.8007026262754 412.34000000000003 443.39 C 412.9594329439378 442.9671523989616 413.5415554523789 442.49208690356716 414.08000000000004 441.96999999999997 C 414.6046953921335 441.436544092907 415.07686911402186 440.85386162759806 415.49000000000007 440.22999999999996 C 415.90832052003105 439.6014966063066 416.260209593979 438.9312317035485 416.5400000000001 438.22999999999996 C 416.82125586679155 437.54133872783194 417.0388317287765 436.8283593647121 417.19000000000005 436.09999999999997 C 417.3411882114069 435.3628738104674 417.41823869193917 434.61246913050104 417.4200000000001 433.85999999999996 C 417.40869134942966 433.1296161718947 417.3215572640515 432.4023816900845 417.16 431.69 Z" stroke-linecap="round" />
</g>
		<g transform="matrix(1 0 0 1 -182.03 -26.98)"  >
<path style="stroke: none; stroke-width: 1; stroke-dasharray: none; stroke-linecap: butt; stroke-dashoffset: 0; stroke-linejoin: miter; stroke-miterlimit: 4; fill: rgb(176,121,59); fill-rule: nonzero; opacity: 1;" vector-effect="non-scaling-stroke"  transform=" translate(-73.97, -221.44)" d="M 85.18 219.16 C 85.03027676881425 218.43127178869855 84.81266063529924 217.71816045887243 84.53 217.03 C 84.25964158454941 216.3336622154823 83.9248551783438 215.6640894030711 83.53 215.03 C 83.1091913466 214.40935170331701 82.63037378198912 213.8300829013752 82.09999999999998 213.3 C 81.58163152335108 212.7626853016886 81.00083720789375 212.289321148628 80.36999999999998 211.89000000000001 C 79.74151983113721 211.4852129255047 79.07091776091391 211.14991189039304 78.36999999999999 210.89000000000001 C 77.68459113027617 210.59969923375448 76.97071118992731 210.38184854773252 76.24 210.24 C 74.76847724471247 209.9399070260715 73.25152275528754 209.9399070260715 71.78 210.24 C 71.04779268578447 210.37578396148646 70.33326401640608 210.5938326164611 69.65 210.89000000000001 C 68.25300527432144 211.45476734440206 66.98183525758806 212.29088452118393 65.91000000000001 213.35000000000002 C 62.665669295993375 216.62200102123944 61.69653368971921 221.51889353586864 63.45000000000001 225.78000000000003 C 63.71388984463799 226.4791849292915 64.04898596334961 227.14937716671474 64.45000000000002 227.78000000000003 C 64.86384914658039 228.40024241199 65.33599297156188 228.97953944547794 65.86000000000001 229.51000000000002 C 66.39162799048412 230.03969427245633 66.97448068185021 230.51535566426082 67.60000000000001 230.93 C 68.22850339369336 231.34832052003097 68.89876829645145 231.70020959397897 69.60000000000001 231.98000000000002 C 71.68078250786208 232.85655769977453 73.97806287635561 233.0831483279264 76.19000000000001 232.63000000000002 C 76.91835936471219 232.4788317287764 77.631338727832 232.2612558667915 78.32000000000001 231.98000000000002 C 79.70381975844214 231.40810081314592 80.96117398066221 230.56873191344764 82.02000000000001 229.51000000000002 C 83.08500400339226 228.45428159943162 83.9281950009448 227.19629503050243 84.50000000000001 225.81000000000003 C 84.78125586679147 225.12133872783204 84.9988317287764 224.40835936471223 85.15000000000002 223.68000000000004 C 85.28970338778586 222.94151629491432 85.36000974562072 222.1915818113426 85.36000000000001 221.44000000000003 C 85.37346609417594 220.67597974314157 85.31318682980466 219.91244239443893 85.18 219.16 Z" stroke-linecap="round" />
</g>
</g>
</g>
<g transform="matrix(NaN NaN NaN NaN 0 0)"  >
<g style=""   >
</g>
</g>
<g transform="matrix(NaN NaN NaN NaN 0 0)"  >
<g style=""   >
</g>
</g>
<g transform="matrix(NaN NaN NaN NaN 0 0)"  >
<g style=""   >
</g>
</g>
</svg>
