<?xml version="1.0" encoding="UTF-8" standalone="no" ?>
<!DOCTYPE svg PUBLIC "-//W3C//DTD SVG 1.1//EN" "http://www.w3.org/Graphics/SVG/1.1/DTD/svg11.dtd">
<svg xmlns="http://www.w3.org/2000/svg" xmlns:xlink="http://www.w3.org/1999/xlink" version="1.1" width="1080" height="1080" viewBox="0 0 1080 1080" xml:space="preserve">
<desc>Created with Fabric.js 5.2.4</desc>
<defs>
</defs>
<g transform="matrix(1 0 0 1 540 540)" id="2f75aff1-a1fc-4e4e-bc63-b3962c093892"  >
<rect style="stroke: none; stroke-width: 1; stroke-dasharray: none; stroke-linecap: butt; stroke-dashoffset: 0; stroke-linejoin: miter; stroke-miterlimit: 4; fill: rgb(255,255,255); fill-rule: nonzero; opacity: 1; visibility: hidden;" vector-effect="non-scaling-stroke"  x="-540" y="-540" rx="0" ry="0" width="1080" height="1080" />
</g>
<g transform="matrix(1 0 0 1 540 540)" id="01736f2d-7150-49d1-8bf8-a2da8de8912c"  >
</g>
<g transform="matrix(1 0 0 1 540 540)"  >
<g style="" vector-effect="non-scaling-stroke"   >
		<g transform="matrix(1 0 0 1 -153 160)"  >
<path style="stroke: none; stroke-width: 1; stroke-dasharray: none; stroke-linecap: butt; stroke-dashoffset: 0; stroke-linejoin: miter; stroke-miterlimit: 4; fill: rgb(176,121,59); fill-rule: nonzero; opacity: 1;" vector-effect="non-scaling-stroke"  transform=" translate(-96, -408)" d="M 48 448 L 144 448 L 144 368 L 48 368 Z M 64 384 L 128 384 L 128 432 L 64 432 Z" stroke-linecap="round" />
</g>
		<g transform="matrix(1 0 0 1 -25 160)"  >
<path style="stroke: none; stroke-width: 1; stroke-dasharray: none; stroke-linecap: butt; stroke-dashoffset: 0; stroke-linejoin: miter; stroke-miterlimit: 4; fill: rgb(176,121,59); fill-rule: nonzero; opacity: 1;" vector-effect="non-scaling-stroke"  transform=" translate(-224, -408)" d="M 176 368 L 176 448 L 272 448 L 272 368 Z M 256 432 L 192 432 L 192 384 L 256 384 Z" stroke-linecap="round" />
</g>
		<g transform="matrix(1 0 0 1 -169 -120)"  >
<path style="stroke: none; stroke-width: 1; stroke-dasharray: none; stroke-linecap: butt; stroke-dashoffset: 0; stroke-linejoin: miter; stroke-miterlimit: 4; fill: rgb(176,121,59); fill-rule: nonzero; opacity: 1;" vector-effect="non-scaling-stroke"  transform=" translate(-80, -128)" d="M 112 168 L 112 88 C 112 74.74516600406096 101.25483399593904 64 88 64 L 72 64 C 58.745166004060955 64 48 74.74516600406096 48 88 L 48 168 C 48 181.25483399593904 58.745166004060955 192 72 192 L 88 192 C 101.25483399593904 192 112 181.25483399593904 112 168 Z M 64 168 L 64 88 C 64 83.58172200135365 67.58172200135365 80 72 80 L 88 80 C 92.41827799864635 80 96 83.58172200135365 96 88 L 96 168 C 96 172.41827799864635 92.41827799864635 176 88 176 L 72 176 C 67.58172200135365 176 64 172.41827799864635 64 168 Z" stroke-linecap="round" />
</g>
		<g transform="matrix(1 0 0 1 0 0)"  >
<path style="stroke: none; stroke-width: 1; stroke-dasharray: none; stroke-linecap: butt; stroke-dashoffset: 0; stroke-linejoin: miter; stroke-miterlimit: 4; fill: rgb(176,121,59); fill-rule: nonzero; opacity: 1;" vector-effect="non-scaling-stroke"  transform=" translate(-249, -248)" d="M 399.21 197.44 C 390.2853997328626 190.44042999298236 377.7346002671374 190.44042999298236 368.81 197.44 L 355.87 208 L 223.32 208 C 223.73629252038558 205.35285724638842 223.96353400562123 202.67942800832216 224 200.00000000000003 L 224 168 L 324.28 168 L 340 144.42 L 355.72 168 L 372.28000000000003 168 L 388 144.42 L 403.72 168 L 420.28000000000003 168 L 436 144.42 L 451.72 168 L 468 168 L 498 128 L 468 88 L 224 88 L 224 56 C 223.96143232349775 25.088043358000693 198.9119566419993 0.038567676502268 168 1.4210854715202004e-14 L 56 0 C 25.088043358000693 0.03856767650226363 0.038567676502268 25.0880433580007 1.4210854715202004e-14 56.00000000000001 L 0 200 C 0.0485364822189487 221.6162590490549 12.562168402326801 241.26495902942963 32.129999999999995 250.45 L 0 276.16 L 0 336 L 16 336 L 16 496 L 480 496 L 480 310.48 C 488.20486562216985 307.6657632695282 494.22893177562696 300.6105763218566 495.72270985939764 292.06608246385383 C 497.21648794316826 283.521588605851 493.943397630938 274.84104048399786 487.18 269.41 Z M 379 209.79 C 381.97105255578475 207.46016982913872 386.14894744421525 207.46016982913872 389.12 209.79 L 477.12 281.78999999999996 C 478.76497106305834 283.1315753735702 479.8093320065559 285.0719043368002 480.02314580914805 287.18378452731537 C 480.2369596117402 289.29566471783056 479.60269569879324 291.4059432668817 478.26 293.04999999999995 L 478.26 293.04999999999995 C 475.4103190131821 296.36788340581035 470.46156980927253 296.8733062818757 467 294.2 L 384 226.33999999999997 L 301.09000000000003 294.17999999999995 C 297.625375823434 296.8670051154909 292.66335521371883 296.3703635487081 289.8 293.04999999999995 C 287.01744193323896 289.62941476311795 287.5273153161125 284.6022421109265 290.94 281.80999999999995 Z M 280.8 269.43 C 270.5551293900081 277.82089386742354 269.0425695455164 292.924117166712 277.42 303.18 C 280.1973940867018 306.5182794902237 283.86673390141124 308.9980318224706 288 310.33 L 288 320 L 16 320 L 16 288 L 256 288 L 256 272 L 30.81 272 L 90.81 224 L 336.32 224 Z M 304 152 L 224 152 L 224 136 L 296 136 C 300.4182779986464 136 304 139.58172200135365 304 144 Z M 460 104 L 478 128 L 460.15 151.81 L 444.28 128 L 427.72 128 L 412 151.58 L 396.28 128 L 379.72 128 L 364 151.58 L 348.28 128 L 331.72 128 L 320 145.58 L 320 144 C 320 130.74516600406096 309.25483399593907 120 296 120 L 224 120 L 224 104 Z M 16 200 L 16 56 C 16 33.908610006768264 33.908610006768264 16 56 16 L 168 16 C 190.09138999323173 16 208 33.90861000676826 208 55.99999999999999 L 208 200 C 207.97905766038355 202.69016674950626 207.68081423822855 205.37100649921433 207.11 208 L 85.19 208 L 46.71 238.78 C 28.722259305928223 234.53379565373143 16.01089254734115 218.4821250937182 15.999999999999996 200 Z M 32 336 L 288 336 L 288 480 L 32 480 Z M 432 480 L 416 480 L 416 384 L 352 384 L 352 480 L 336 480 L 336 400 C 336 373.4903320081219 357.4903320081219 352 384 352 C 410.5096679918781 352 432 373.4903320081219 432 400 Z M 400 480 L 368 480 L 368 400 L 400 400 Z M 448 480 L 448 400 C 448 364.65377601082923 419.34622398917077 336 384 336 C 348.65377601082923 336 320 364.65377601082923 320 400 L 320 480 L 304 480 L 304 310.4 C 306.60568022190836 309.5737951063814 309.0388252488154 308.2792806213139 311.18 306.58 L 384 247 L 456.82 306.57 C 458.97069288157587 308.29861026605124 461.3982616859664 309.6510162852103 464 310.57 L 464 480 Z" stroke-linecap="round" />
</g>
</g>
</g>
<g transform="matrix(NaN NaN NaN NaN 0 0)"  >
<g style=""   >
</g>
</g>
<g transform="matrix(NaN NaN NaN NaN 0 0)"  >
<g style=""   >
</g>
</g>
<g transform="matrix(NaN NaN NaN NaN 0 0)"  >
<g style=""   >
</g>
</g>
</svg>